<svg xmlns="http://www.w3.org/2000/svg" width="141" height="175" viewBox="0 0 141 175" fill="none">
  <path d="M15.714 111.94V116.05H7.13391V120.49H13.554V124.48H7.13391V133H2.00391V111.94H15.714ZM17.3902 124.6C17.3902 122.88 17.7102 121.37 18.3502 120.07C19.0102 118.77 19.9002 117.77 21.0202 117.07C22.1402 116.37 23.3902 116.02 24.7702 116.02C25.9502 116.02 26.9802 116.26 27.8602 116.74C28.7602 117.22 29.4502 117.85 29.9302 118.63V116.26H35.0602V133H29.9302V130.63C29.4302 131.41 28.7302 132.04 27.8302 132.52C26.9502 133 25.9202 133.24 24.7402 133.24C23.3802 133.24 22.1402 132.89 21.0202 132.19C19.9002 131.47 19.0102 130.46 18.3502 129.16C17.7102 127.84 17.3902 126.32 17.3902 124.6ZM29.9302 124.63C29.9302 123.35 29.5702 122.34 28.8502 121.6C28.1502 120.86 27.2902 120.49 26.2702 120.49C25.2502 120.49 24.3802 120.86 23.6602 121.6C22.9602 122.32 22.6102 123.32 22.6102 124.6C22.6102 125.88 22.9602 126.9 23.6602 127.66C24.3802 128.4 25.2502 128.77 26.2702 128.77C27.2902 128.77 28.1502 128.4 28.8502 127.66C29.5702 126.92 29.9302 125.91 29.9302 124.63ZM37.7515 124.63C37.7515 122.89 38.1015 121.37 38.8015 120.07C39.5215 118.77 40.5115 117.77 41.7715 117.07C43.0515 116.37 44.5115 116.02 46.1515 116.02C48.2515 116.02 50.0015 116.57 51.4015 117.67C52.8215 118.77 53.7515 120.32 54.1915 122.32H48.7315C48.2715 121.04 47.3815 120.4 46.0615 120.4C45.1215 120.4 44.3715 120.77 43.8115 121.51C43.2515 122.23 42.9715 123.27 42.9715 124.63C42.9715 125.99 43.2515 127.04 43.8115 127.78C44.3715 128.5 45.1215 128.86 46.0615 128.86C47.3815 128.86 48.2715 128.22 48.7315 126.94H54.1915C53.7515 128.9 52.8215 130.44 51.4015 131.56C49.9815 132.68 48.2315 133.24 46.1515 133.24C44.5115 133.24 43.0515 132.89 41.7715 132.19C40.5115 131.49 39.5215 130.49 38.8015 129.19C38.1015 127.89 37.7515 126.37 37.7515 124.63ZM59.5156 114.52C58.6156 114.52 57.8756 114.26 57.2956 113.74C56.7356 113.2 56.4556 112.54 56.4556 111.76C56.4556 110.96 56.7356 110.3 57.2956 109.78C57.8756 109.24 58.6156 108.97 59.5156 108.97C60.3956 108.97 61.1156 109.24 61.6756 109.78C62.2556 110.3 62.5456 110.96 62.5456 111.76C62.5456 112.54 62.2556 113.2 61.6756 113.74C61.1156 114.26 60.3956 114.52 59.5156 114.52ZM62.0656 116.26V133H56.9356V116.26H62.0656ZM70.9133 110.8V133H65.7833V110.8H70.9133ZM77.2109 114.52C76.3109 114.52 75.5709 114.26 74.9909 113.74C74.4309 113.2 74.1509 112.54 74.1509 111.76C74.1509 110.96 74.4309 110.3 74.9909 109.78C75.5709 109.24 76.3109 108.97 77.2109 108.97C78.0909 108.97 78.8109 109.24 79.3709 109.78C79.9509 110.3 80.2409 110.96 80.2409 111.76C80.2409 112.54 79.9509 113.2 79.3709 113.74C78.8109 114.26 78.0909 114.52 77.2109 114.52ZM79.7609 116.26V133H74.6309V116.26H79.7609ZM136.65 133.24C135.75 133.24 135.01 132.98 134.43 132.46C133.87 131.92 133.59 131.26 133.59 130.48C133.59 129.68 133.87 129.01 134.43 128.47C135.01 127.93 135.75 127.66 136.65 127.66C137.53 127.66 138.25 127.93 138.81 128.47C139.39 129.01 139.68 129.68 139.68 130.48C139.68 131.26 139.39 131.92 138.81 132.46C138.25 132.98 137.53 133.24 136.65 133.24Z" fill="white"/>
  <path d="M98.6279 111.94V116.05H93.0479V133H87.9179V116.05H82.3379V111.94H98.6279ZM117.733 116.26V133H112.603V130.72C112.083 131.46 111.373 132.06 110.473 132.52C109.593 132.96 108.613 133.18 107.533 133.18C106.253 133.18 105.123 132.9 104.143 132.34C103.163 131.76 102.403 130.93 101.863 129.85C101.323 128.77 101.053 127.5 101.053 126.04V116.26H106.153V125.35C106.153 126.47 106.443 127.34 107.023 127.96C107.603 128.58 108.383 128.89 109.363 128.89C110.363 128.89 111.153 128.58 111.733 127.96C112.313 127.34 112.603 126.47 112.603 125.35V116.26H117.733ZM126.548 119.05C127.148 118.13 127.898 117.41 128.798 116.89C129.698 116.35 130.698 116.08 131.798 116.08V121.51H130.388C129.108 121.51 128.148 121.79 127.508 122.35C126.868 122.89 126.548 123.85 126.548 125.23V133H121.418V116.26H126.548V119.05Z" fill="#FF9A3D"/>
  <path d="M83 162.5C83 155.596 77.4036 150 70.5 150C63.5964 150 58 155.596 58 162.5C58 169.404 63.5964 175 70.5 175C77.4036 175 83 169.404 83 162.5Z" fill="#FF9A3D"/>
  <g filter="url(#filter0_d_50_5)">
    <path d="M71.375 0C60.9357 0.0118159 50.9274 4.15467 43.5458 11.5197C36.1641 18.8847 32.0118 28.8704 32 39.2861C32 72.9025 67.7955 98.2912 69.3212 99.3537C69.9231 99.7743 70.6402 100 71.375 100C72.1099 100 72.8269 99.7743 73.4288 99.3537C74.9545 98.2912 110.75 72.9025 110.75 39.2861C110.738 28.8704 106.586 18.8847 99.2043 11.5197C91.8226 4.15467 81.8143 0.0118159 71.375 0Z" fill="#FF9A3D"/>
  </g>
  <path d="M84.7069 32.6445V29.5172C84.7069 29.3801 84.6524 29.2485 84.5554 29.1515C84.4584 29.0545 84.3268 29 84.1897 29C84.0525 29 83.9209 29.0545 83.8239 29.1515C83.7269 29.2485 83.6724 29.3801 83.6724 29.5172V32.6445C82.2143 32.7776 80.8636 33.4677 79.9014 34.5712C78.9391 35.6747 78.4393 37.1067 78.5059 38.5694C78.5725 40.032 79.2004 41.4126 80.2591 42.4241C81.3177 43.4356 82.7255 44 84.1897 44C85.6538 44 87.0616 43.4356 88.1203 42.4241C89.1789 41.4126 89.8068 40.032 89.8734 38.5694C89.94 37.1067 89.4402 35.6747 88.478 34.5712C87.5157 33.4677 86.165 32.7776 84.7069 32.6445ZM88.8151 37.7929H86.761C86.6634 35.9593 86.0634 34.6662 85.5041 33.8451C86.3827 34.1053 87.1652 34.6185 87.754 35.3205C88.3428 36.0226 88.7119 36.8824 88.8151 37.7929ZM85.7259 38.8273C85.5966 40.9945 84.683 42.2508 84.1897 42.7764C83.6957 42.2495 82.7821 40.9939 82.6535 38.8273H85.7259ZM82.8752 33.8451C82.3147 34.6662 81.716 35.9593 81.6183 37.7929H79.5642C79.6675 36.8824 80.0365 36.0226 80.6253 35.3205C81.2141 34.6185 81.9966 34.1053 82.8752 33.8451ZM79.5642 38.8273H81.6183C81.716 40.6609 82.316 41.954 82.8752 42.7751C81.9966 42.5149 81.2141 42.0018 80.6253 41.2997C80.0365 40.5977 79.6675 39.7378 79.5642 38.8273ZM93.5 34.1723C93.5 34.3095 93.4455 34.441 93.3485 34.538C93.2515 34.635 93.1199 34.6895 92.9828 34.6895H92.4655V35.2067C92.4655 35.3439 92.411 35.4755 92.314 35.5725C92.217 35.6695 92.0855 35.724 91.9483 35.724C91.8111 35.724 91.6795 35.6695 91.5825 35.5725C91.4855 35.4755 91.431 35.3439 91.431 35.2067V34.6895H90.9138C90.7766 34.6895 90.645 34.635 90.548 34.538C90.451 34.441 90.3966 34.3095 90.3966 34.1723C90.3966 34.0351 90.451 33.9036 90.548 33.8066C90.645 33.7096 90.7766 33.6551 90.9138 33.6551H91.431V33.1378C91.431 33.0007 91.4855 32.8691 91.5825 32.7721C91.6795 32.6751 91.8111 32.6206 91.9483 32.6206C92.0855 32.6206 92.217 32.6751 92.314 32.7721C92.411 32.8691 92.4655 33.0007 92.4655 33.1378V33.6551H92.9828C93.1199 33.6551 93.2515 33.7096 93.3485 33.8066C93.4455 33.9036 93.5 34.0351 93.5 34.1723ZM86.7759 31.0689C86.7759 30.9317 86.8304 30.8002 86.9274 30.7032C87.0244 30.6062 87.1559 30.5517 87.2931 30.5517H88.3276V29.5172C88.3276 29.3801 88.3821 29.2485 88.4791 29.1515C88.5761 29.0545 88.7076 29 88.8448 29C88.982 29 89.1136 29.0545 89.2106 29.1515C89.3076 29.2485 89.3621 29.3801 89.3621 29.5172V30.5517H90.3966C90.5337 30.5517 90.6653 30.6062 90.7623 30.7032C90.8593 30.8002 90.9138 30.9317 90.9138 31.0689C90.9138 31.2061 90.8593 31.3377 90.7623 31.4347C90.6653 31.5317 90.5337 31.5861 90.3966 31.5861H89.3621V32.6206C89.3621 32.7578 89.3076 32.8893 89.2106 32.9863C89.1136 33.0833 88.982 33.1378 88.8448 33.1378C88.7076 33.1378 88.5761 33.0833 88.4791 32.9863C88.3821 32.8893 88.3276 32.7578 88.3276 32.6206V31.5861H87.2931C87.1559 31.5861 87.0244 31.5317 86.9274 31.4347C86.8304 31.3377 86.7759 31.2061 86.7759 31.0689Z" fill="white"/>
  <path d="M76.864 30.394C76.903 30.5012 76.9106 30.6174 76.8859 30.7289C76.8612 30.8403 76.8052 30.9424 76.7245 31.0231L74.9248 32.8229C74.8691 32.8788 74.8029 32.9231 74.7301 32.9533C74.6573 32.9836 74.5792 32.9991 74.5003 32.9992C74.4806 33.0003 74.4608 33.0003 74.4411 32.9992C74.3528 32.9905 74.2675 32.9623 74.1914 32.9166C74.1152 32.871 74.0502 32.809 74.0009 32.7352L70.6962 27.7768L69.1012 29.3688V31.1994C69.1011 31.3583 69.038 31.5107 68.9257 31.6231C68.9257 31.6231 67.8758 32.6775 67.7349 32.8139C67.6763 32.8753 67.6052 32.9234 67.5264 32.9549C67.3796 33.0147 67.2151 33.014 67.0688 32.9529C66.9225 32.8917 66.8064 32.7752 66.7458 32.6287L66.7413 32.6175L65.6389 29.8608L62.8771 28.7561C62.785 28.7193 62.7034 28.6602 62.6397 28.584C62.5761 28.5079 62.5323 28.4172 62.5123 28.32C62.4923 28.2228 62.4967 28.1221 62.5252 28.0271C62.5537 27.932 62.6053 27.8455 62.6754 27.7753L63.8752 26.5754C63.9312 26.5194 63.9978 26.4751 64.071 26.445C64.1442 26.4149 64.2227 26.3996 64.3019 26.3999H66.1316L67.7266 24.8048L62.7691 21.4992C62.6952 21.45 62.6331 21.385 62.5873 21.3088C62.5416 21.2327 62.5133 21.1473 62.5045 21.0589C62.4958 20.9705 62.5068 20.8813 62.5367 20.7977C62.5666 20.714 62.6148 20.6381 62.6776 20.5753L64.4773 18.7755C64.5581 18.6948 64.6602 18.6388 64.7716 18.6141C64.8831 18.5894 64.9992 18.597 65.1065 18.636L71.551 20.9795L73.9154 18.615C74.3092 18.2212 74.8433 18 75.4002 18C75.676 18 75.949 18.0543 76.2038 18.1598C76.4585 18.2654 76.69 18.42 76.885 18.615C77.08 18.81 77.2346 19.0415 77.3402 19.2963C77.4457 19.5511 77.5 19.8241 77.5 20.0999C77.5 20.3756 77.4457 20.6487 77.3402 20.9035C77.2346 21.1582 77.08 21.3897 76.885 21.5847L74.5206 23.9492L76.864 30.394Z" fill="white"/>
  <path fill-rule="evenodd" clip-rule="evenodd" d="M93 53.6008C93.0027 54.4799 92.7652 55.3422 92.3145 56.0899C91.8638 56.8377 91.2179 57.441 90.45 57.8315L90.3675 57.87L83.0869 61.0507C83.0149 61.0832 82.9402 61.109 82.8637 61.1277L70.8637 64.2046C70.7449 64.2359 70.6227 64.2521 70.5 64.2527H51C50.2043 64.2527 49.4413 63.9285 48.8787 63.3515C48.3161 62.7744 48 61.9918 48 61.1757V53.4834C48 52.6674 48.3161 51.8848 48.8787 51.3077C49.4413 50.7307 50.2043 50.4065 51 50.4065H56.3794L60.6206 46.0546C61.1768 45.4817 61.8381 45.0274 62.5664 44.7181C63.2947 44.4089 64.0755 44.2507 64.8637 44.2527H74.25C75.0423 44.2526 75.8244 44.4364 76.5376 44.7904C77.2508 45.1445 77.8766 45.6594 78.3681 46.2968C78.8597 46.9341 79.2042 47.6773 79.3758 48.4707C79.5475 49.264 79.5419 50.0869 79.3594 50.8777L87.2044 49.0277C87.8873 48.8422 88.6027 48.82 89.2953 48.9629C89.9879 49.1057 90.6393 49.4098 91.1993 49.8516C91.7592 50.2934 92.2128 50.8613 92.525 51.5113C92.8372 52.1613 92.9997 52.8761 93 53.6008ZM90 53.6008C89.9997 53.3464 89.9424 53.0955 89.8323 52.8675C89.7222 52.6396 89.5625 52.4407 89.3653 52.2863C89.1682 52.1319 88.9391 52.0262 88.6957 51.9774C88.4523 51.9285 88.2012 51.9378 87.9619 52.0046L87.9037 52.02L75.3412 54.9834C75.231 55.0087 75.1185 55.0216 75.0056 55.0219H69C68.6022 55.0219 68.2206 54.8598 67.9393 54.5713C67.658 54.2828 67.5 53.8915 67.5 53.4834C67.5 53.0754 67.658 52.6841 67.9393 52.3956C68.2206 52.1071 68.6022 51.945 69 51.945H74.25C74.8467 51.945 75.419 51.7019 75.841 51.2691C76.2629 50.8363 76.5 50.2493 76.5 49.6373C76.5 49.0253 76.2629 48.4383 75.841 48.0055C75.419 47.5727 74.8467 47.3296 74.25 47.3296H64.8637C64.4696 47.3283 64.0792 47.4074 63.7151 47.5622C63.3511 47.7171 63.0207 47.9446 62.7431 48.2315L58.5 52.5815V61.1757H70.3125L82.0181 58.1738L89.1431 55.0623C89.4024 54.9222 89.6194 54.7119 89.7705 54.4542C89.9215 54.1966 90.0009 53.9014 90 53.6008Z" fill="white"/>
  <defs>
    <filter id="filter0_d_50_5" x="32" y="0" width="98.75" height="120" filterUnits="userSpaceOnUse" color-interpolation-filters="sRGB">
      <feFlood flood-opacity="0" result="BackgroundImageFix"/>
      <feColorMatrix in="SourceAlpha" type="matrix" values="0 0 0 0 0 0 0 0 0 0 0 0 0 0 0 0 0 0 127 0" result="hardAlpha"/>
      <feOffset dx="10" dy="10"/>
      <feGaussianBlur stdDeviation="5"/>
      <feComposite in2="hardAlpha" operator="out"/>
      <feColorMatrix type="matrix" values="0 0 0 0 0 0 0 0 0 0 0 0 0 0 0 0 0 0 0.25 0"/>
      <feBlend mode="normal" in2="BackgroundImageFix" result="effect1_dropShadow_50_5"/>
      <feBlend mode="normal" in="SourceGraphic" in2="effect1_dropShadow_50_5" result="shape"/>
    </filter>
  </defs>
</svg>