<svg width="184" height="60" viewBox="0 0 184 60" fill="none" xmlns="http://www.w3.org/2000/svg">
<path d="M23 54.5C23 51.4624 20.5376 49 17.5 49C14.4624 49 12 51.4624 12 54.5C12 57.5376 14.4624 60 17.5 60C20.5376 60 23 57.5376 23 54.5Z" fill="#FBFBFB"/>
<path d="M18 0C13.2277 0.00540155 8.65253 1.89928 5.27808 5.26615C1.90359 8.63301 0.00539429 13.1979 0 17.9594C0 33.3269 16.3637 44.9331 17.0611 45.4188C17.3363 45.6111 17.6641 45.7143 18 45.7143C18.336 45.7143 18.6637 45.6111 18.9389 45.4188C19.6363 44.9331 36 33.3269 36 17.9594C35.9945 13.1979 34.0965 8.63301 30.722 5.26615C27.3475 1.89928 22.7723 0.00540155 18 0ZM18 11.4287C19.2946 11.4287 20.56 11.8117 21.6365 12.5293C22.7129 13.2469 23.5518 14.2668 24.0472 15.4602C24.5426 16.6535 24.6722 17.9666 24.4197 19.2334C24.1671 20.5003 23.5437 21.6639 22.6283 22.5772C21.713 23.4906 20.5467 24.1125 19.2769 24.3646C18.0073 24.6165 16.6912 24.4872 15.4952 23.9929C14.2992 23.4987 13.2769 22.6616 12.5577 21.5876C11.8384 20.5136 11.4545 19.251 11.4545 17.9594C11.4545 16.2273 12.1441 14.5662 13.3717 13.3415C14.5992 12.1168 16.264 11.4287 18 11.4287Z" fill="white"/>
<path fill-rule="evenodd" clip-rule="evenodd" d="M21.636 12.5294C20.5596 11.8118 19.2941 11.4287 17.9996 11.4287C16.2636 11.4287 14.5987 12.1168 13.3712 13.3415C12.1437 14.5663 11.4541 16.2274 11.4541 17.9594C11.4541 19.2511 11.838 20.5137 12.5572 21.5877C13.2765 22.6616 14.2987 23.4987 15.4947 23.993C16.6908 24.4873 18.0068 24.6166 19.2765 24.3646C20.5462 24.1126 21.7125 23.4907 22.6279 22.5773C23.5433 21.664 24.1667 20.5003 24.4193 19.2335C24.6718 17.9667 24.5422 16.6535 24.0468 15.4602C23.5514 14.2669 22.7124 13.247 21.636 12.5294Z" fill="white"/>
<path d="M23.8966 14.7008V13.2414C23.8966 13.1774 23.8711 13.116 23.8259 13.0707C23.7806 13.0254 23.7192 13 23.6552 13C23.5912 13 23.5298 13.0254 23.4845 13.0707C23.4392 13.116 23.4138 13.1774 23.4138 13.2414V14.7008C22.7333 14.7629 22.103 15.0849 21.654 15.5999C21.2049 16.1149 20.9717 16.7831 21.0028 17.4657C21.0338 18.1483 21.3269 18.7925 21.8209 19.2646C22.3149 19.7366 22.9719 20 23.6552 20C24.3384 20 24.9954 19.7366 25.4895 19.2646C25.9835 18.7925 26.2765 18.1483 26.3076 17.4657C26.3387 16.7831 26.1054 16.1149 25.6564 15.5999C25.2073 15.0849 24.577 14.7629 23.8966 14.7008ZM25.8137 17.1034H24.8551C24.8096 16.2477 24.5296 15.6442 24.2686 15.261C24.6786 15.3825 25.0438 15.622 25.3185 15.9496C25.5933 16.2772 25.7656 16.6785 25.8137 17.1034ZM24.3721 17.5861C24.3117 18.5974 23.8854 19.1837 23.6552 19.429C23.4247 19.1831 22.9983 18.5972 22.9383 17.5861H24.3721ZM23.0418 15.261C22.7802 15.6442 22.5008 16.2477 22.4552 17.1034H21.4966C21.5448 16.6785 21.717 16.2772 21.9918 15.9496C22.2666 15.622 22.6317 15.3825 23.0418 15.261ZM21.4966 17.5861H22.4552C22.5008 18.4418 22.7808 19.0452 23.0418 19.4284C22.6317 19.307 22.2666 19.0675 21.9918 18.7399C21.717 18.4123 21.5448 18.011 21.4966 17.5861ZM28 15.4137C28 15.4778 27.9746 15.5391 27.9293 15.5844C27.884 15.6297 27.8226 15.6551 27.7586 15.6551H27.5172V15.8965C27.5172 15.9605 27.4918 16.0219 27.4465 16.0672C27.4013 16.1124 27.3399 16.1379 27.2759 16.1379C27.2118 16.1379 27.1504 16.1124 27.1052 16.0672C27.0599 16.0219 27.0345 15.9605 27.0345 15.8965V15.6551H26.7931C26.7291 15.6551 26.6677 15.6297 26.6224 15.5844C26.5771 15.5391 26.5517 15.4778 26.5517 15.4137C26.5517 15.3497 26.5771 15.2883 26.6224 15.2431C26.6677 15.1978 26.7291 15.1724 26.7931 15.1724H27.0345V14.931C27.0345 14.867 27.0599 14.8056 27.1052 14.7603C27.1504 14.715 27.2118 14.6896 27.2759 14.6896C27.3399 14.6896 27.4013 14.715 27.4465 14.7603C27.4918 14.8056 27.5172 14.867 27.5172 14.931V15.1724H27.7586C27.8226 15.1724 27.884 15.1978 27.9293 15.2431C27.9746 15.2883 28 15.3497 28 15.4137ZM24.8621 13.9655C24.8621 13.9015 24.8875 13.8401 24.9328 13.7948C24.9781 13.7496 25.0394 13.7241 25.1034 13.7241H25.5862V13.2414C25.5862 13.1774 25.6116 13.116 25.6569 13.0707C25.7022 13.0254 25.7635 13 25.8276 13C25.8916 13 25.953 13.0254 25.9983 13.0707C26.0435 13.116 26.069 13.1774 26.069 13.2414V13.7241H26.5517C26.6157 13.7241 26.6771 13.7496 26.7224 13.7948C26.7677 13.8401 26.7931 13.9015 26.7931 13.9655C26.7931 14.0295 26.7677 14.0909 26.7224 14.1362C26.6771 14.1815 26.6157 14.2068 26.5517 14.2068H26.069V14.6896C26.069 14.7536 26.0435 14.815 25.9983 14.8603C25.953 14.9055 25.8916 14.931 25.8276 14.931C25.7635 14.931 25.7022 14.9055 25.6569 14.8603C25.6116 14.815 25.5862 14.7536 25.5862 14.6896V14.2068H25.1034C25.0394 14.2068 24.9781 14.1815 24.9328 14.1362C24.8875 14.0909 24.8621 14.0295 24.8621 13.9655Z" fill="#FF9A3D"/>
<path d="M20.7032 13.7839C20.7214 13.8339 20.7249 13.8881 20.7134 13.9401C20.7019 13.9921 20.6758 14.0398 20.6381 14.0774L19.7982 14.9173C19.7722 14.9434 19.7414 14.9641 19.7074 14.9782C19.6734 14.9923 19.637 14.9996 19.6001 14.9996C19.5909 15.0001 19.5817 15.0001 19.5725 14.9996C19.5313 14.9956 19.4915 14.9824 19.456 14.9611C19.4204 14.9398 19.3901 14.9109 19.3671 14.8764L17.8249 12.5625L17.0806 13.3054V14.1597C17.0805 14.2339 17.0511 14.305 16.9987 14.3574C16.9987 14.3574 16.5087 14.8495 16.443 14.9131C16.4156 14.9418 16.3824 14.9642 16.3457 14.9789C16.2772 15.0068 16.2004 15.0065 16.1321 14.978C16.0638 14.9494 16.0097 14.8951 15.9814 14.8267L15.9793 14.8215L15.4648 13.535L14.176 13.0195C14.133 13.0023 14.0949 12.9748 14.0652 12.9392C14.0355 12.9037 14.0151 12.8614 14.0057 12.816C13.9964 12.7706 13.9985 12.7236 14.0118 12.6793C14.0251 12.6349 14.0491 12.5946 14.0819 12.5618L14.6418 12.0018C14.6679 11.9757 14.699 11.955 14.7331 11.941C14.7673 11.9269 14.8039 11.9198 14.8409 11.9199H15.6948L16.4391 11.1756L14.1256 9.63296C14.0911 9.61 14.0621 9.57966 14.0407 9.5441C14.0194 9.50859 14.0062 9.46874 14.0021 9.42748C13.998 9.38623 14.0032 9.3446 14.0171 9.30559C14.0311 9.26653 14.0536 9.23111 14.0829 9.2018L14.9227 8.3619C14.9605 8.32424 15.0081 8.29811 15.0601 8.28658C15.1121 8.27505 15.1663 8.2786 15.2164 8.2968L18.2238 9.39043L19.3272 8.287C19.511 8.10323 19.7602 8 20.0201 8C20.1488 8 20.2762 8.02534 20.3951 8.07457C20.514 8.12385 20.622 8.196 20.713 8.287C20.804 8.378 20.8761 8.48603 20.9254 8.60494C20.9747 8.72385 21 8.85124 21 8.97995C21 9.10861 20.9747 9.23606 20.9254 9.35496C20.8761 9.47382 20.804 9.58186 20.713 9.67286L19.6096 10.7763L20.7032 13.7839Z" fill="#FF9A3D"/>
<path fill-rule="evenodd" clip-rule="evenodd" d="M28 24.2066C28.0012 24.6022 27.8904 24.9903 27.6801 25.3267C27.4698 25.6633 27.1683 25.9347 26.81 26.1105L26.7715 26.1278L23.3739 27.5591C23.3403 27.5737 23.3054 27.5853 23.2697 27.5938L17.6697 28.9784C17.6143 28.9924 17.5573 28.9997 17.5 29H8.4C8.02867 29 7.67261 28.8541 7.41006 28.5945C7.14751 28.3348 7 27.9826 7 27.6153V24.1538C7 23.7866 7.14751 23.4344 7.41006 23.1748C7.67261 22.9151 8.02867 22.7692 8.4 22.7692H10.9104L12.8896 20.8109C13.1492 20.5531 13.4578 20.3486 13.7976 20.2094C14.1375 20.0703 14.5019 19.9991 14.8697 20H19.25C19.6197 20 19.9847 20.0827 20.3175 20.242C20.6504 20.4013 20.9424 20.633 21.1718 20.9199C21.4012 21.2066 21.562 21.5411 21.642 21.8981C21.7222 22.2551 21.7195 22.6254 21.6344 22.9813L25.2954 22.1488C25.6141 22.0653 25.9479 22.0553 26.2711 22.1196C26.5943 22.1839 26.8983 22.3207 27.1597 22.5195C27.421 22.7183 27.6326 22.9739 27.7783 23.2664C27.924 23.5589 27.9998 23.8805 28 24.2066ZM26.6 24.2066C26.5999 24.0922 26.5731 23.9793 26.5217 23.8767C26.4703 23.7741 26.3958 23.6846 26.3038 23.6151C26.2118 23.5456 26.1049 23.4981 25.9913 23.4761C25.8777 23.4541 25.7605 23.4583 25.6489 23.4884L25.6217 23.4953L19.7592 24.8288C19.7078 24.8402 19.6553 24.846 19.6026 24.8461H16.8C16.6144 24.8461 16.4363 24.7732 16.305 24.6434C16.1737 24.5135 16.1 24.3375 16.1 24.1538C16.1 23.9702 16.1737 23.7941 16.305 23.6643C16.4363 23.5345 16.6144 23.4615 16.8 23.4615H19.25C19.5285 23.4615 19.7955 23.3521 19.9925 23.1574C20.1893 22.9626 20.3 22.6985 20.3 22.4231C20.3 22.1477 20.1893 21.8835 19.9925 21.6888C19.7955 21.494 19.5285 21.3846 19.25 21.3846H14.8697C14.6858 21.384 14.5036 21.4196 14.3337 21.4893C14.1638 21.559 14.0097 21.6614 13.8801 21.7905L11.9 23.748V27.6153H17.4125L22.8751 26.2645L26.2001 24.8643C26.3211 24.8013 26.4224 24.7066 26.4929 24.5907C26.5634 24.4748 26.6004 24.3419 26.6 24.2066Z" fill="#FF9A3D"/>
<path d="M59.7101 20.8352V24.9452H51.13V29.3852H57.5501V33.3752H51.13V41.8952H46V20.8352H59.7101ZM61.3862 33.4952C61.3862 31.7752 61.7063 30.2652 62.3463 28.9652C63.0063 27.6652 63.8963 26.6652 65.0163 25.9652C66.1363 25.2652 67.3863 24.9152 68.7663 24.9152C69.9463 24.9152 70.9763 25.1552 71.8563 25.6352C72.7563 26.1152 73.4463 26.7452 73.9263 27.5252V25.1552H79.0562V41.8952H73.9263V39.5252C73.4263 40.3052 72.7263 40.9352 71.8263 41.4152C70.9463 41.8952 69.9162 42.1352 68.7362 42.1352C67.3762 42.1352 66.1363 41.7852 65.0163 41.0852C63.8963 40.3652 63.0063 39.3552 62.3463 38.0552C61.7063 36.7352 61.3862 35.2152 61.3862 33.4952ZM73.9263 33.5252C73.9263 32.2452 73.5663 31.2352 72.8463 30.4952C72.1463 29.7552 71.2863 29.3852 70.2663 29.3852C69.2463 29.3852 68.3763 29.7552 67.6562 30.4952C66.9563 31.2152 66.6063 32.2152 66.6063 33.4952C66.6063 34.7752 66.9563 35.7952 67.6562 36.5552C68.3763 37.2952 69.2463 37.6652 70.2663 37.6652C71.2863 37.6652 72.1463 37.2952 72.8463 36.5552C73.5663 35.8152 73.9263 34.8052 73.9263 33.5252ZM81.7475 33.5252C81.7475 31.7852 82.0976 30.2652 82.7976 28.9652C83.5176 27.6652 84.5075 26.6652 85.7675 25.9652C87.0475 25.2652 88.5075 24.9152 90.1475 24.9152C92.2475 24.9152 93.9975 25.4652 95.3975 26.5652C96.8175 27.6652 97.7475 29.2152 98.1875 31.2152H92.7275C92.2675 29.9352 91.3775 29.2952 90.0575 29.2952C89.1175 29.2952 88.3675 29.6652 87.8075 30.4052C87.2475 31.1252 86.9675 32.1652 86.9675 33.5252C86.9675 34.8852 87.2475 35.9352 87.8075 36.6752C88.3675 37.3952 89.1175 37.7552 90.0575 37.7552C91.3775 37.7552 92.2675 37.1152 92.7275 35.8352H98.1875C97.7475 37.7952 96.8175 39.3352 95.3975 40.4552C93.9775 41.5752 92.2275 42.1352 90.1475 42.1352C88.5075 42.1352 87.0475 41.7852 85.7675 41.0852C84.5075 40.3852 83.5176 39.3852 82.7976 38.0852C82.0976 36.7852 81.7475 35.2652 81.7475 33.5252ZM103.512 23.4152C102.612 23.4152 101.872 23.1552 101.292 22.6352C100.732 22.0952 100.452 21.4352 100.452 20.6552C100.452 19.8552 100.732 19.1952 101.292 18.6752C101.872 18.1352 102.612 17.8652 103.512 17.8652C104.392 17.8652 105.112 18.1352 105.672 18.6752C106.252 19.1952 106.542 19.8552 106.542 20.6552C106.542 21.4352 106.252 22.0952 105.672 22.6352C105.112 23.1552 104.392 23.4152 103.512 23.4152ZM106.062 25.1552V41.8952H100.932V25.1552H106.062ZM114.909 19.6952V41.8952H109.779V19.6952H114.909ZM121.207 23.4152C120.307 23.4152 119.567 23.1552 118.987 22.6352C118.427 22.0952 118.147 21.4352 118.147 20.6552C118.147 19.8552 118.427 19.1952 118.987 18.6752C119.567 18.1352 120.307 17.8652 121.207 17.8652C122.087 17.8652 122.807 18.1352 123.367 18.6752C123.947 19.1952 124.237 19.8552 124.237 20.6552C124.237 21.4352 123.947 22.0952 123.367 22.6352C122.807 23.1552 122.087 23.4152 121.207 23.4152ZM123.757 25.1552V41.8952H118.627V25.1552H123.757ZM180.646 42.1352C179.746 42.1352 179.006 41.8752 178.426 41.3552C177.866 40.8152 177.586 40.1552 177.586 39.3752C177.586 38.5752 177.866 37.9052 178.426 37.3652C179.006 36.8252 179.746 36.5552 180.646 36.5552C181.526 36.5552 182.246 36.8252 182.806 37.3652C183.386 37.9052 183.676 38.5752 183.676 39.3752C183.676 40.1552 183.386 40.8152 182.806 41.3552C182.246 41.8752 181.526 42.1352 180.646 42.1352Z" fill="white"/>
<path d="M142.468 20.8652V24.9288H136.827V41.6873H131.641V24.9288H126V20.8652H142.468ZM161.781 25.1364V41.6873H156.595V39.433C156.07 40.1647 155.352 40.7579 154.442 41.2127C153.552 41.6477 152.562 41.8652 151.47 41.8652C150.176 41.8652 149.034 41.5884 148.043 41.0347C147.052 40.4613 146.284 39.6407 145.738 38.5729C145.192 37.5051 144.919 36.2494 144.919 34.8059V25.1364H150.075V34.1237C150.075 35.2311 150.368 36.0912 150.954 36.7042C151.541 37.3172 152.329 37.6237 153.32 37.6237C154.331 37.6237 155.13 37.3172 155.716 36.7042C156.302 36.0912 156.595 35.2311 156.595 34.1237V25.1364H161.781ZM170.693 27.8949C171.299 26.9853 172.057 26.2734 172.967 25.7593C173.877 25.2254 174.888 24.9585 176 24.9585V30.3271H174.575C173.281 30.3271 172.31 30.6039 171.663 31.1576C171.016 31.6915 170.693 32.6407 170.693 34.0051V41.6873H165.507V25.1364H170.693V27.8949Z" fill="white"/>
</svg>
