<svg width="100" height="100" viewBox="0 0 100 100" fill="none" xmlns="http://www.w3.org/2000/svg">
<path fill-rule="evenodd" clip-rule="evenodd" d="M49.9994 12.8092C55.4471 7.80067 62.5963 5.01247 70.0229 5C78.0509 5 85.7161 8.2769 91.3254 14.0461C96.9073 19.8199 100.017 27.5158 99.9999 35.5167C100.017 43.5176 96.9073 51.2135 91.3254 56.9873C87.6231 60.7949 83.9253 64.6949 80.209 68.6087C72.6555 76.5656 65.0228 84.6101 57.0925 92.1839L57.0785 92.2024C55.1095 94.0527 52.4841 95.0571 49.7729 94.9975C47.0617 94.9379 44.4838 93.819 42.5993 91.8839L8.6687 56.9873C-2.88957 45.0935 -2.88957 25.9398 8.6687 14.0507C14.0111 8.4957 21.3427 5.25108 29.0774 5.01873C36.8122 4.78639 44.3281 7.58501 49.9994 12.8092Z" fill="white"/>
</svg>
