<svg width="100" height="100" viewBox="0 0 100 100" fill="none" xmlns="http://www.w3.org/2000/svg">
<path d="M50 36.4C46.3834 36.4 42.9149 37.8329 40.3576 40.3833C37.8003 42.9338 36.3636 46.3931 36.3636 50C36.3636 53.6069 37.8003 57.0662 40.3576 59.6167C42.9149 62.1671 46.3834 63.6 50 63.6C53.6166 63.6 57.0851 62.1671 59.6424 59.6167C62.1997 57.0662 63.6364 53.6069 63.6364 50C63.6364 46.3931 62.1997 42.9338 59.6424 40.3833C57.0851 37.8329 53.6166 36.4 50 36.4ZM50 72.6667C43.9724 72.6667 38.1916 70.2786 33.9294 66.0278C29.6672 61.7769 27.2727 56.0116 27.2727 50C27.2727 43.9884 29.6672 38.2231 33.9294 33.9722C38.1916 29.7214 43.9724 27.3333 50 27.3333C56.0276 27.3333 61.8084 29.7214 66.0706 33.9722C70.3328 38.2231 72.7273 43.9884 72.7273 50C72.7273 56.0116 70.3328 61.7769 66.0706 66.0278C61.8084 70.2786 56.0276 72.6667 50 72.6667ZM50 16C27.2727 16 7.86364 30.0987 0 50C7.86364 69.9013 27.2727 84 50 84C72.7273 84 92.1364 69.9013 100 50C92.1364 30.0987 72.7273 16 50 16Z" fill="white"/>
</svg>
