<svg width="100" height="100" viewBox="0 0 100 100" fill="none" xmlns="http://www.w3.org/2000/svg">
<g clip-path="url(#clip0_225_294)">
<path d="M36.9941 8.77379e-06C40.7232 8.77379e-06 44.1565 1.26667 46.8898 3.39167V95.875C43.7392 98.5428 39.7434 100.005 35.615 100C31.6052 99.9993 27.7168 98.6236 24.5988 96.1023C21.4808 93.581 19.3217 90.0667 18.4818 86.1458L18.3152 85.3542C13.9825 85.0318 9.87646 83.2921 6.63098 80.4036C3.38551 77.5152 1.18112 73.6387 0.358165 69.3727C-0.464788 65.1066 0.139467 60.6883 2.07763 56.7999C4.0158 52.9115 7.18009 49.7693 11.0819 47.8583C8.21787 45.5208 6.10875 42.3887 5.01969 38.8558C3.93064 35.323 3.91025 31.547 4.9611 28.0026C6.01194 24.4581 8.08712 21.3035 10.9258 18.9351C13.7644 16.5667 17.2398 15.0904 20.9151 14.6917C21.2773 10.6768 23.1286 6.94264 26.1049 4.22383C29.0812 1.50501 32.9671 -0.00172066 36.9983 8.77379e-06M63.0396 8.77379e-06C67.0694 0.00036035 70.9532 1.50802 73.9278 4.22664C76.9024 6.94525 78.7525 10.6782 79.1145 14.6917C82.7898 15.0904 86.2652 16.5667 89.1038 18.9351C91.9425 21.3035 94.0177 24.4581 95.0685 28.0026C96.1194 31.547 96.099 35.323 95.0099 38.8558C93.9209 42.3887 91.8117 45.5208 88.9477 47.8583C92.8413 49.7746 95.9973 52.9175 97.9296 56.8032C99.862 60.6889 100.464 65.102 99.642 69.3632C98.8204 73.6244 96.621 77.4975 93.3824 80.3861C90.1438 83.2747 86.0456 85.0189 81.7186 85.35L81.5519 86.1417C80.7127 90.064 78.5534 93.5798 75.4344 96.102C72.3155 98.6242 68.4257 100 64.4146 100C60.2862 100.005 56.2904 98.5428 53.1398 95.875V3.39167C55.9682 1.18999 59.4553 -0.00373386 63.0396 8.77379e-06Z" fill="white"/>
</g>
<defs>
<clipPath id="clip0_225_294">
<rect width="100" height="100" fill="white"/>
</clipPath>
</defs>
</svg>
