<svg width="100" height="100" viewBox="0 0 100 100" fill="none" xmlns="http://www.w3.org/2000/svg">
<path d="M20.0024 25.4679C19.9872 25.8277 20.0453 26.1868 20.1731 26.5231C20.3009 26.8595 20.4956 27.1659 20.7453 27.4237C20.9951 27.6814 21.2945 27.885 21.6253 28.0219C21.956 28.1588 22.3111 28.2261 22.6687 28.2197H31.7961C33.3229 28.2197 34.5399 26.9608 34.739 25.4345C35.7347 18.1261 40.7133 12.8008 49.5863 12.8008C57.1759 12.8008 64.1238 16.6221 64.1238 25.8133C64.1238 32.8877 59.986 36.1408 53.4475 41.0873C46.0017 46.5352 40.1048 52.8966 40.5252 63.2242L40.5584 65.6417C40.57 66.3726 40.8666 67.0697 41.384 67.5824C41.9015 68.0951 42.5984 68.3824 43.3243 68.3823H52.2969C53.0304 68.3823 53.7339 68.0889 54.2526 67.5666C54.7713 67.0443 55.0627 66.3358 55.0627 65.5971V64.4274C55.0627 56.4283 58.0831 54.0998 66.2369 47.8721C72.9746 42.7139 80 36.9875 80 24.9666C80 8.1328 65.8829 0 50.4271 0C36.4096 0 21.0534 6.57308 20.0024 25.4679ZM37.2283 89.6725C37.2283 95.6105 41.9303 100 48.4025 100C55.1402 100 59.7758 95.6105 59.7758 89.6725C59.7758 83.5227 55.1291 79.2001 48.3914 79.2001C41.9303 79.2001 37.2283 83.5227 37.2283 89.6725Z" fill="white"/>
</svg>
