<svg xmlns="http://www.w3.org/2000/svg" width="141" height="141" viewBox="0 0 141 141" fill="none">
  <path d="M83 125.5C83 118.596 77.4036 113 70.5 113C63.5964 113 58 118.596 58 125.5C58 132.404 63.5964 138 70.5 138C77.4036 138 83 132.404 83 125.5Z" fill="#FF9A3D"/>
  <g filter="url(#filter0_d_134_2)">
    <path d="M71.375 3C60.9357 3.01182 50.9274 7.15467 43.5458 14.5197C36.1641 21.8847 32.0118 31.8704 32 42.2861C32 75.9025 67.7955 101.291 69.3212 102.354C69.9231 102.774 70.6402 103 71.375 103C72.1099 103 72.8269 102.774 73.4288 102.354C74.9545 101.291 110.75 75.9025 110.75 42.2861C110.738 31.8704 106.586 21.8847 99.2043 14.5197C91.8226 7.15467 81.8143 3.01182 71.375 3ZM71.375 28.0002C74.2069 28.0002 76.9751 28.8381 79.3298 30.4079C81.6844 31.9776 83.5196 34.2087 84.6033 36.8191C85.687 39.4295 85.9705 42.302 85.4181 45.0731C84.8656 47.8443 83.5019 50.3898 81.4995 52.3877C79.4971 54.3857 76.9458 55.7462 74.1683 56.2975C71.3909 56.8487 68.512 56.5658 65.8957 55.4845C63.2794 54.4033 61.0432 52.5722 59.4699 50.2229C57.8966 47.8736 57.0568 45.1116 57.0568 42.2861C57.0568 38.4973 58.5653 34.8636 61.2505 32.1845C63.9357 29.5054 67.5776 28.0002 71.375 28.0002Z" fill="#FF9A3D"/>
    <path fill-rule="evenodd" clip-rule="evenodd" d="M82.8893 27.1179C79.5179 25.0851 75.5546 24 71.5 24C66.0631 24 60.8488 25.9492 57.0043 29.4186C53.1598 32.888 51 37.5936 51 42.5C51 46.159 52.2024 49.7357 54.4549 52.778C56.7075 55.8203 59.9092 58.1916 63.655 59.5917C67.4009 60.992 71.5228 61.3583 75.4993 60.6445C79.476 59.9306 83.1288 58.1688 85.9957 55.5814C88.8626 52.9942 90.8151 49.6978 91.6061 46.1091C92.397 42.5206 91.9911 38.8008 90.4396 35.4203C88.888 32.0399 86.2604 29.1507 82.8893 27.1179Z" fill="#FF9A3D"/>
  </g>
  <path d="M84.7069 35.6445V32.5172C84.7069 32.3801 84.6524 32.2485 84.5554 32.1515C84.4584 32.0545 84.3268 32 84.1897 32C84.0525 32 83.9209 32.0545 83.8239 32.1515C83.7269 32.2485 83.6724 32.3801 83.6724 32.5172V35.6445C82.2143 35.7776 80.8636 36.4677 79.9014 37.5712C78.9391 38.6747 78.4393 40.1067 78.5059 41.5694C78.5725 43.032 79.2004 44.4126 80.2591 45.4241C81.3177 46.4356 82.7255 47 84.1897 47C85.6538 47 87.0616 46.4356 88.1203 45.4241C89.1789 44.4126 89.8068 43.032 89.8734 41.5694C89.94 40.1067 89.4402 38.6747 88.478 37.5712C87.5157 36.4677 86.165 35.7776 84.7069 35.6445ZM88.8151 40.7929H86.761C86.6634 38.9593 86.0634 37.6662 85.5041 36.8451C86.3827 37.1053 87.1652 37.6185 87.754 38.3205C88.3428 39.0226 88.7119 39.8824 88.8151 40.7929ZM85.7259 41.8273C85.5966 43.9945 84.683 45.2508 84.1897 45.7764C83.6957 45.2495 82.7821 43.9939 82.6535 41.8273H85.7259ZM82.8752 36.8451C82.3147 37.6662 81.716 38.9593 81.6183 40.7929H79.5642C79.6675 39.8824 80.0365 39.0226 80.6253 38.3205C81.2141 37.6185 81.9966 37.1053 82.8752 36.8451ZM79.5642 41.8273H81.6183C81.716 43.6609 82.316 44.954 82.8752 45.7751C81.9966 45.5149 81.2141 45.0018 80.6253 44.2997C80.0365 43.5977 79.6675 42.7378 79.5642 41.8273ZM93.5 37.1723C93.5 37.3095 93.4455 37.441 93.3485 37.538C93.2515 37.635 93.1199 37.6895 92.9828 37.6895H92.4655V38.2067C92.4655 38.3439 92.411 38.4755 92.314 38.5725C92.217 38.6695 92.0855 38.724 91.9483 38.724C91.8111 38.724 91.6795 38.6695 91.5825 38.5725C91.4855 38.4755 91.431 38.3439 91.431 38.2067V37.6895H90.9138C90.7766 37.6895 90.645 37.635 90.548 37.538C90.451 37.441 90.3966 37.3095 90.3966 37.1723C90.3966 37.0351 90.451 36.9036 90.548 36.8066C90.645 36.7096 90.7766 36.6551 90.9138 36.6551H91.431V36.1378C91.431 36.0007 91.4855 35.8691 91.5825 35.7721C91.6795 35.6751 91.8111 35.6206 91.9483 35.6206C92.0855 35.6206 92.217 35.6751 92.314 35.7721C92.411 35.8691 92.4655 36.0007 92.4655 36.1378V36.6551H92.9828C93.1199 36.6551 93.2515 36.7096 93.3485 36.8066C93.4455 36.9036 93.5 37.0351 93.5 37.1723ZM86.7759 34.0689C86.7759 33.9317 86.8304 33.8002 86.9274 33.7032C87.0244 33.6062 87.1559 33.5517 87.2931 33.5517H88.3276V32.5172C88.3276 32.3801 88.3821 32.2485 88.4791 32.1515C88.5761 32.0545 88.7076 32 88.8448 32C88.982 32 89.1136 32.0545 89.2106 32.1515C89.3076 32.2485 89.3621 32.3801 89.3621 32.5172V33.5517H90.3966C90.5337 33.5517 90.6653 33.6062 90.7623 33.7032C90.8593 33.8002 90.9138 33.9317 90.9138 34.0689C90.9138 34.2061 90.8593 34.3377 90.7623 34.4347C90.6653 34.5317 90.5337 34.5861 90.3966 34.5861H89.3621V35.6206C89.3621 35.7578 89.3076 35.8893 89.2106 35.9863C89.1136 36.0833 88.982 36.1378 88.8448 36.1378C88.7076 36.1378 88.5761 36.0833 88.4791 35.9863C88.3821 35.8893 88.3276 35.7578 88.3276 35.6206V34.5861H87.2931C87.1559 34.5861 87.0244 34.5317 86.9274 34.4347C86.8304 34.3377 86.7759 34.2061 86.7759 34.0689Z" fill="white"/>
  <path d="M76.864 33.394C76.903 33.5012 76.9106 33.6174 76.8859 33.7289C76.8612 33.8403 76.8052 33.9424 76.7245 34.0231L74.9248 35.8229C74.8691 35.8788 74.8029 35.9231 74.7301 35.9533C74.6573 35.9836 74.5792 35.9991 74.5003 35.9992C74.4806 36.0003 74.4608 36.0003 74.4411 35.9992C74.3528 35.9905 74.2675 35.9623 74.1914 35.9166C74.1152 35.871 74.0502 35.809 74.0009 35.7352L70.6962 30.7768L69.1012 32.3688V34.1994C69.1011 34.3583 69.038 34.5107 68.9257 34.6231C68.9257 34.6231 67.8758 35.6775 67.7349 35.8139C67.6763 35.8753 67.6052 35.9234 67.5264 35.9549C67.3796 36.0147 67.2151 36.014 67.0688 35.9529C66.9225 35.8917 66.8064 35.7752 66.7458 35.6287L66.7413 35.6175L65.6389 32.8608L62.8771 31.7561C62.785 31.7193 62.7034 31.6602 62.6397 31.584C62.5761 31.5079 62.5323 31.4172 62.5123 31.32C62.4923 31.2228 62.4967 31.1221 62.5252 31.0271C62.5537 30.932 62.6053 30.8455 62.6754 30.7753L63.8752 29.5754C63.9312 29.5194 63.9978 29.4751 64.071 29.445C64.1442 29.4149 64.2227 29.3996 64.3019 29.3999H66.1316L67.7266 27.8048L62.7691 24.4992C62.6952 24.45 62.6331 24.385 62.5873 24.3088C62.5416 24.2327 62.5133 24.1473 62.5045 24.0589C62.4958 23.9705 62.5068 23.8813 62.5367 23.7977C62.5666 23.714 62.6148 23.6381 62.6776 23.5753L64.4773 21.7755C64.5581 21.6948 64.6602 21.6388 64.7716 21.6141C64.8831 21.5894 64.9992 21.597 65.1065 21.636L71.551 23.9795L73.9154 21.615C74.3092 21.2212 74.8433 21 75.4002 21C75.676 21 75.949 21.0543 76.2038 21.1598C76.4585 21.2654 76.69 21.42 76.885 21.615C77.08 21.81 77.2346 22.0415 77.3402 22.2963C77.4457 22.5511 77.5 22.8241 77.5 23.0999C77.5 23.3756 77.4457 23.6487 77.3402 23.9035C77.2346 24.1582 77.08 24.3897 76.885 24.5847L74.5206 26.9492L76.864 33.394Z" fill="white"/>
  <path fill-rule="evenodd" clip-rule="evenodd" d="M93 56.6008C93.0027 57.4799 92.7652 58.3422 92.3145 59.0899C91.8638 59.8377 91.2179 60.441 90.45 60.8315L90.3675 60.87L83.0869 64.0507C83.0149 64.0832 82.9402 64.109 82.8637 64.1277L70.8637 67.2046C70.7449 67.2359 70.6227 67.2521 70.5 67.2527H51C50.2043 67.2527 49.4413 66.9285 48.8787 66.3515C48.3161 65.7744 48 64.9918 48 64.1757V56.4834C48 55.6674 48.3161 54.8848 48.8787 54.3077C49.4413 53.7307 50.2043 53.4065 51 53.4065H56.3794L60.6206 49.0546C61.1768 48.4817 61.8381 48.0274 62.5664 47.7181C63.2947 47.4089 64.0755 47.2507 64.8637 47.2527H74.25C75.0423 47.2526 75.8244 47.4364 76.5376 47.7904C77.2508 48.1445 77.8766 48.6594 78.3681 49.2968C78.8597 49.9341 79.2042 50.6773 79.3758 51.4707C79.5475 52.264 79.5419 53.0869 79.3594 53.8777L87.2044 52.0277C87.8873 51.8422 88.6027 51.82 89.2953 51.9629C89.9879 52.1057 90.6393 52.4098 91.1993 52.8516C91.7592 53.2934 92.2128 53.8613 92.525 54.5113C92.8372 55.1613 92.9997 55.8761 93 56.6008ZM90 56.6008C89.9997 56.3464 89.9424 56.0955 89.8323 55.8675C89.7222 55.6396 89.5625 55.4407 89.3653 55.2863C89.1682 55.1319 88.9391 55.0262 88.6957 54.9774C88.4523 54.9285 88.2012 54.9378 87.9619 55.0046L87.9037 55.02L75.3412 57.9834C75.231 58.0087 75.1185 58.0216 75.0056 58.0219H69C68.6022 58.0219 68.2206 57.8598 67.9393 57.5713C67.658 57.2828 67.5 56.8915 67.5 56.4834C67.5 56.0754 67.658 55.6841 67.9393 55.3956C68.2206 55.1071 68.6022 54.945 69 54.945H74.25C74.8467 54.945 75.419 54.7019 75.841 54.2691C76.2629 53.8363 76.5 53.2493 76.5 52.6373C76.5 52.0253 76.2629 51.4383 75.841 51.0055C75.419 50.5727 74.8467 50.3296 74.25 50.3296H64.8637C64.4696 50.3283 64.0792 50.4074 63.7151 50.5622C63.3511 50.7171 63.0207 50.9446 62.7431 51.2315L58.5 55.5815V64.1757H70.3125L82.0181 61.1738L89.1431 58.0623C89.4024 57.9222 89.6194 57.7119 89.7705 57.4542C89.9215 57.1966 90.0009 56.9014 90 56.6008Z" fill="white"/>
  <defs>
    <filter id="filter0_d_134_2" x="32" y="3" width="98.75" height="120" filterUnits="userSpaceOnUse" color-interpolation-filters="sRGB">
      <feFlood flood-opacity="0" result="BackgroundImageFix"/>
      <feColorMatrix in="SourceAlpha" type="matrix" values="0 0 0 0 0 0 0 0 0 0 0 0 0 0 0 0 0 0 127 0" result="hardAlpha"/>
      <feOffset dx="10" dy="10"/>
      <feGaussianBlur stdDeviation="5"/>
      <feComposite in2="hardAlpha" operator="out"/>
      <feColorMatrix type="matrix" values="0 0 0 0 0 0 0 0 0 0 0 0 0 0 0 0 0 0 0.25 0"/>
      <feBlend mode="normal" in2="BackgroundImageFix" result="effect1_dropShadow_134_2"/>
      <feBlend mode="normal" in="SourceGraphic" in2="effect1_dropShadow_134_2" result="shape"/>
    </filter>
  </defs>
</svg>